P3
3 3
255
0 0 0
85 85 85
85 85 85
170 170 170
85 85 85
170 170 170
170 170 170
255 255 255
0 0 0
